<svg xmlns="http://www.w3.org/2000/svg" xmlns:xlink="http://www.w3.org/1999/xlink" viewBox="0 0 400 400"><defs><filter id="b" x="141.82" y="-8182" width="106.98" height="32766" filterUnits="userSpaceOnUse" color-interpolation-filters="sRGB"><feFlood flood-color="#fff" result="bg"/><feBlend in="SourceGraphic" in2="bg"/></filter><mask id="a" x="141.82" y="-8182" width="106.98" height="32766" maskUnits="userSpaceOnUse"><g style="filter:url(#b)"/></mask><radialGradient id="c" cx="195.31" cy="-665.28" r="53.49" gradientTransform="translate(0 622.56) scale(1 0.6)" gradientUnits="userSpaceOnUse"><stop offset="0" stop-color="#fff"/><stop offset="0.09" stop-color="#f5f5f5"/><stop offset="0.23" stop-color="#d9d9d9"/><stop offset="0.43" stop-color="#ababab"/><stop offset="0.65" stop-color="#6c6c6c"/><stop offset="0.91" stop-color="#1d1d1d"/><stop offset="1"/></radialGradient><filter id="e" x="141.82" y="190.79" width="106.98" height="64.26" filterUnits="userSpaceOnUse" color-interpolation-filters="sRGB"><feFlood flood-color="#fff" result="bg"/><feBlend in="SourceGraphic" in2="bg"/></filter><mask id="d" x="141.82" y="190.79" width="106.98" height="64.26" maskUnits="userSpaceOnUse"><g style="mask:url(#a);filter:url(#e)"><ellipse cx="195.31" cy="222.92" rx="53.49" ry="32.13" style="mix-blend-mode:multiply;fill:url(#c)"/></g></mask><radialGradient id="f" cx="195.31" cy="-665.28" r="53.49" gradientTransform="translate(0 622.56) scale(1 0.6)" gradientUnits="userSpaceOnUse"><stop offset="0" stop-color="#d3dded"/><stop offset="0.33" stop-color="#dde5f1"/><stop offset="0.9" stop-color="#f9fafd"/><stop offset="1" stop-color="#fff"/></radialGradient></defs><g style="isolation:isolate"><g style="mask:url(#d)"><ellipse cx="195.31" cy="222.92" rx="53.49" ry="32.13" style="mix-blend-mode:multiply;fill:url(#f)"/></g><polygon points="119.75 219 119.75 260.16 140.18 251.87 130.28 216.13 119.75 219" style="fill:#0e1011"/><polygon points="107.63 218.36 119.75 260.16 119.75 219 107.63 218.36" style="fill:#494c53"/><polygon points="85.94 200.18 85.94 223.15 99.02 211.98 85.94 200.18" style="fill:#494c53"/><polygon points="78.28 241.34 119.75 260.16 107.63 218.36 99.02 211.98 85.94 223.15 78.28 241.34" style="fill:#3d4246"/><polygon points="151.34 134.45 151.34 143.38 171.76 156.15 182.93 157.74 200.8 157.74 224.41 142.11 211.33 126.47 177.51 122.96 151.34 134.45" style="fill:#37383d"/><polygon points="200.8 157.74 198.25 200.18 200.8 264.63 248.02 263.03 224.41 142.11 200.8 157.74" style="fill:#1a1b1d"/><polygon points="248.02 263.03 259.82 244.85 224.41 142.11 248.02 263.03" style="fill:#0e1011"/><polygon points="182.93 157.74 198.34 202.57 200.8 157.74 182.93 157.74" style="fill:#494c53"/><polygon points="151.34 143.38 154.85 158.1 173.68 156.42 151.34 143.38" style="fill:#494c53"/><polygon points="151.34 134.45 124.88 181.3 146.56 189.05 154.85 158.1 151.34 134.45" style="fill:#37383d"/><polygon points="151.34 134.45 128.7 182.67 124.88 181.3 151.34 134.45" style="fill:#494c53"/><polygon points="232.42 165.35 239.53 185.98 253.76 194.75 276.1 197.94 304.17 197.94 315.34 189.05 322.36 177.52 322.36 163.49 295.88 145.62 265.89 145.62 232.42 165.35" style="fill:#37383d"/><polygon points="276.1 197.94 259.82 216.13 259.82 244.85 309.6 244.18 322.36 229.53 315.34 206.88 304.17 197.94 276.1 197.94" style="fill:#0e1011"/><polygon points="322.36 229.53 315.34 206.88 315.34 189.05 322.36 177.52 322.36 163.49 335.76 180.16 337.36 193.16 332.57 221.4 322.36 229.53" style="fill:#1a1b1d"/><polygon points="304.17 197.94 315.34 206.88 315.34 189.05 304.17 197.94" style="fill:#494c53"/><polygon points="253.76 194.75 259.82 216.13 276.1 197.94 253.76 194.75" style="fill:#494c53"/><polygon points="239.53 185.98 253.76 194.75 259.82 216.13 259.82 244.85 239.53 185.98" style="fill:#3d4347"/><polygon points="265.89 145.62 233.87 169.56 232.42 165.35 265.89 145.62" style="fill:#494c53"/><polygon points="146.56 188.69 184.84 255.06 140.18 251.87 130.28 216.13 146.56 188.69" style="fill:#1a1b1d"/><polygon points="146.56 189.05 154.85 158.1 173.68 156.42 182.93 157.74 198.34 202.93 200.8 264.99 184.84 255.42 146.56 189.05" style="fill:#3d4347"/><polygon points="78.28 241.34 85.94 223.15 85.94 200.18 99.02 211.98 107.63 218.36 119.75 219 130.28 216.13 146.56 188.69 118.48 179.12 99.97 177.52 80.19 189.97 62.64 214.85 78.28 241.34" style="fill:#37383d"/><polygon points="157.82 271.44 155.54 266.04 155.54 259.21 151.65 262.71 149.09 264.61 145.49 264.8 142.36 263.95 137.52 255.79 145.87 252.95 149.76 256.17 157.25 256.17 158.86 263.95 157.82 271.44" style="fill:#37383d"/><polygon points="145.49 264.8 145.49 277.04 139.42 274.57 142.36 263.95 145.49 264.8" style="fill:#0e1011"/><polygon points="149.09 264.61 145.49 277.04 145.49 264.8 149.09 264.61" style="fill:#494c53"/><polygon points="137.52 255.79 134.25 263.95 139.42 274.57 142.36 263.95 137.52 255.79" style="fill:#1a1b1d"/><polygon points="155.54 259.21 155.54 266.04 151.65 262.71 155.54 259.21" style="fill:#494c53"/><polygon points="157.82 271.44 145.49 277.04 149.09 264.61 151.65 262.71 155.54 266.04 157.82 271.44" style="fill:#3d4246"/></g></svg>